<svg viewBox="0 0 72 72" xmlns="http://www.w3.org/2000/svg"><ellipse cx="29.5854" cy="24.8305" fill="#fff" rx="11.1656" ry="11.1657" transform="matrix(.8006 -.5992 .5992 .8006 -8.979 22.6777)"/><path d="m39 19c-1.6269-2.1743-5.3114-4.6131-8-5-1.841-.2648-5 0-5.3126 1.4508 2.432.2232 6.261 1.3933 9.4483 6.0391 2.7047 3.9427 2.9098 7.2606 2.5092 9.5215 2.3551-.0114 4.1418-8.2871 1.3551-12.0114z" fill="#92d3f5"/><path d="m20.717 13.2532c-3.1395 2.3517-5.1766 5.7832-5.7372 9.6663-.5584 3.883.4286 7.7514 2.7785 10.8927 4.8528 6.4827 14.0758 7.8101 20.5595 2.9577 6.4832-4.8514 7.8112-14.073 2.9587-20.5591-2.3504-3.1402-5.7839-5.1778-9.6668-5.7362-3.883-.5585-7.751.4276-10.8927 2.7786zm17.4763 5.1351c2.2813 3.0482 2.696 6.924 1.4434 10.248-.6965 1.8514-1.9113 3.5306-3.6095 4.8016-4.7463 3.5525-11.498 2.58-15.0496-2.166-1.7206-2.2992-2.4437-5.1309-2.0341-7.9731.41-2.8429 1.8999-5.3554 4.2002-7.0765 2.2984-1.721 5.1298-2.4433 7.9731-2.0341 2.8424.4087 5.3551 1.9007 7.0765 4.2001z" fill="#d0cfce"/><path d="m39 42 10 14s3 4 5 2 0-5 0-5l-11-14z" fill="#3f3f3f"/><g style="fill:none;stroke:#000;stroke-linecap:round;stroke-linejoin:round;stroke-miterlimit:10;stroke-width:2"><ellipse cx="29.5854" cy="24.8305" rx="14.6372" ry="14.6372" transform="matrix(.8006 -.5992 .5992 .8006 -8.979 22.6778)"/><ellipse cx="29.5854" cy="24.8305" rx="11.1656" ry="11.1657" transform="matrix(.8006 -.5992 .5992 .8006 -8.979 22.6777)"/><path d="m38.6805 41.7876 4.1839-3.1316 11.6927 15.622c.8354 1.1162.5758 2.7219-.5795 3.5867-1.1554.8647-2.7691.661-3.6045-.4551z"/></g></svg>